<?xml version="1.0" ?><!DOCTYPE svg  PUBLIC '-//W3C//DTD SVG 1.1//EN'  'http://www.w3.org/Graphics/SVG/1.1/DTD/svg11.dtd'><svg height="512px" style="enable-background:new 0 0 512 512;" version="1.1" viewBox="0 0 512 512" width="512px" xml:space="preserve" xmlns="http://www.w3.org/2000/svg" xmlns:xlink="http://www.w3.org/1999/xlink"><g id="snapchat_x2C__social__x2C__media_x2C__icon_x2C_"><g><path d="M425.614,86.28C382.172,42.97,322.253,16.004,255.96,16.004    c-66.292,0-126.209,26.966-169.652,70.276c-43.443,43.445-70.279,103.492-70.279,169.789c0,66.156,26.836,126.212,70.279,169.65    c43.443,43.311,103.359,70.276,169.652,70.276c66.293,0,126.212-26.966,169.654-70.276    c43.443-43.438,70.282-103.494,70.282-169.65C495.896,189.772,469.058,129.726,425.614,86.28z M412.465,412.438    c-40.121,39.988-95.394,64.83-156.505,64.83c-61.109,0-116.379-24.842-156.367-64.83C59.602,372.448,34.76,317.049,34.76,256.069    c0-61.113,24.842-116.514,64.833-156.502c39.988-39.993,95.258-64.7,156.367-64.7c61.111,0,116.384,24.707,156.505,64.7    c39.988,39.988,64.698,95.389,64.698,156.502C477.163,317.049,452.453,372.448,412.465,412.438z" style="fill-rule:evenodd;clip-rule:evenodd;fill:#262626;"/><path d="M377,316.249V315h-1.202c-3.057-5-5.981-5-7.841-5h-0.132    c-12.757-5-23.646-11.164-31.751-21.791c-4.519-5.977-8.508-11.773-11.162-18.549c-1.061-3.057-1.061-7.66,0.402-7.66h0.265    c2.257-5,6.374-5.224,10.893-6.955c5.049-1.592,10.358-3.605,14.882-7.458c0.928-0.532,1.723-1.407,2.257-2.737    c0-0.265,0.265-0.632,0.397-1.035c0.266-1.061,0.266-2.511-0.397-3.97c-1.202-2.656-3.454-3.848-5.054-4.908    c-2.919-1.6-6.241-1.593-9.028-0.796c-3.057,1.063-5.583,2.131-7.841,2.261c-0.132,0-0.132,0.267-0.132,0.267    c-3.322,0.396-6.644,0.531-9.033-0.266c0-0.399,0-1.198-0.27-1.993c0-5.316,1.339-10.896,1.339-16.874    c0.266-8.768,0.408-17.803,0.408-26.834v-0.268c-5-15.278-13.689-28.428-26.182-37.331c-9.033-6.246-20.395-9.963-31.425-10.761    c-3.719-0.399-7.672-0.667-11.392-0.667c-14.747,0.268-29.875,4.122-41.695,13.555C204.27,162.139,198,171.438,193,181.937    c0,0,0,0,0,0.13c-5,10.628-4.257,22.188-3.595,32.683c0.133,7.306,0.73,14.481,0.2,21.527c0,0.13-0.102-1.571-0.369-1.307    c-3.319,0.531-7.01,2.031-10.594-1.969c0,0,0,0-0.135,0c-2.524,0-4.914,0-7.971,0c0,0,0,0-0.263,0c-2.794,0-5.718,0-7.843,0H164    v3.007c-5,1.197-5.232,2.464-5.365,6.051c0,0.137-0.851-0.058-0.718-0.058h0.132c0.397,0,1.847,4.047,2.912,4.974    c0.928,0.933,3.039,2.185,3.039,2.583c0,0.267,0,0.267,0,0.267c5,3.587,11.308,5.049,16.356,7.174    c3.72,1.595,6.646,3.989,7.313,7.174c1.063,3.856-0.73,8.37-2.99,12.619c-5.709,11.561-14.508,19.468-25.272,26.897    c-5.446,3.719-11.857,6.313-18.496,6.313h-0.135c-1.46,5-4.782,2.99-6.641,6.047c-0.133,0.131-0.4,1.433-0.4,1.83    c-0.528,1.855,0,4.365,1.065,5.563c0.797,1.06,1.862,1.982,2.919,2.513c5.449,3.322,11.692,4.655,17.138,6.112    c4.122,1.069,7.841,1.524,10.765,2.718c0.132,0.27,0.53,1.229,1.195,2.956c1.063,3.057,1.462,6.788,2.654,10.512    c0.268,0.928,1.195,1.737,2.262,2.003c2.52,0.662,3.852-0.262,4.117-0.262c0,0,0.132,0,0.132-0.133    c9.433-1.457,18.733-2.919,27.102-0.795c9.033,2.258,16.608,8.376,25.511,13.685c5.707,3.72,12.483,7.174,20.191,7.438    c5.849,0.397,11.56,0,17.271-0.397c4.917-0.397,9.436-2.124,13.552-4.514l0.266-0.27c9.165-5.049,17.143-11.428,26.176-15.412    c2.92-0.927,6.639-1.225,10.628-1.49c7.434-0.131,14.877,0.896,22.183,0.896c0.266,0,0.667,0,0.8,0    c1.06,0,2.124-0.498,2.522-1.027c0.529-0.664,0.529-1.182,0.799-1.578c0.185-0.369,0.289-0.582,0.213-0.559    c0.063-0.109,0.109-0.185,0.181-0.261c1.201-4.523,2.129-10.117,4.121-12.512c1.06-1.06,2.659-3.063,4.651-3.063    c0.133,0,0.26,0,0.53,0c6.245,0,12.089-1.436,17.536-3.291c0-0.266,0,0.55,0.265,0.55c1.864-0.795,5.383-1.452,7.379-4.244    C379.718,320.493,377,317.711,377,316.249z" style="fill-rule:evenodd;clip-rule:evenodd;fill:#262626;"/></g></g><g id="Layer_1"/></svg>