<?xml version="1.0" ?><svg style="enable-background:new 0 0 100 100;" version="1.1" viewBox="0 0 100 100" xml:space="preserve" xmlns="http://www.w3.org/2000/svg" xmlns:xlink="http://www.w3.org/1999/xlink"><style type="text/css">
	.st0{fill:#FFFFFF;}
	.st1{fill:none;stroke:#000000;stroke-width:3;stroke-linecap:round;stroke-linejoin:round;stroke-miterlimit:10;}
	.st2{fill-rule:evenodd;clip-rule:evenodd;}
	
		.st3{fill-rule:evenodd;clip-rule:evenodd;fill:none;stroke:#040404;stroke-width:3;stroke-linecap:round;stroke-linejoin:round;stroke-miterlimit:10;}
	
		.st4{fill-rule:evenodd;clip-rule:evenodd;fill:none;stroke:#000000;stroke-width:3;stroke-linecap:round;stroke-linejoin:round;stroke-miterlimit:10;}
	.st5{fill-rule:evenodd;clip-rule:evenodd;fill:#040404;}
	.st6{fill:none;}
	.st7{fill:none;stroke:#000000;stroke-width:3;stroke-miterlimit:10;}
	.st8{fill:none;stroke:#FFFFFF;stroke-miterlimit:10;}
	.st9{fill:#040404;}
</style><g id="Layer_1"/><g id="Layer_2"><g><path d="M28.058,58.926c0-0.764-0.62-1.384-1.384-1.384c-7.412-2.087-11.471-10.064-11.545-19.987    c0-7.815,3.378-15.714,9.267-21.672c1.256-1.295-0.664-3.228-1.968-1.946c-6.398,6.472-10.067,15.081-10.067,23.618    c0,10.847,4.615,19.204,12.343,22.355C25.891,60.44,27.986,60.688,28.058,58.926z"/><path d="M77.781,12.304C65.636-0.056,41.885-0.326,28.143,9.226c-0.635,0.424-0.806,1.283-0.382,1.919    c0.423,0.635,1.283,0.807,1.919,0.382c20.875-13.806,54.408-4.59,55.158,23.353c0.231,17.76-9.696,35.36-27.932,35.442    c-3.988,0-8.282-1.653-10.938-4.212c-0.725-0.74-2.078-0.346-2.302,0.657c-0.596,2.352-2.411,9.51-2.883,11.228    c-1.676,6.078-6.507,17.591-10.019,16.63c-2.981-0.8-2.047-13.384-0.565-19.694c1-4.186,4.788-20.299,6.522-27.619    c0.067-0.285,0.042-0.583-0.07-0.853c-3.399-7.527-0.933-20.934,8.589-21.215c4.286,0,7.055,3.077,7.055,7.84    c0,3.015-1.218,6.959-2.509,11.14c-1.177,4.432-4.011,9.888-0.664,13.918c1.543,1.95,3.966,3.068,6.648,3.068    C67.673,60.744,72.008,45.284,72.019,33.9c-0.167-28.902-46.62-25.136-46.633,4.933c0,4.132,1.072,7.325,3.376,10.053    c1.075,1.16,1.099,1.898,0.659,3.354c-0.272,1.088-0.735,2.94-0.95,3.745c-0.434,1.761,2.168,2.465,2.674,0.712    c0.254-0.94,0.747-2.941,1.05-4.139c0.669-2.476,0.023-3.878-1.321-5.461c-1.856-2.197-2.721-4.823-2.721-8.264    c0-10.577,7.89-21.818,22.514-21.818c11.636,0,18.584,6.312,18.584,16.885c0.055,9.138-3.339,24.029-13.481,24.544    c-3.533,0.06-6.241-2.904-5.336-6.4c1.346-5.915,4.615-13.511,4.629-18.959c0-6.246-4.039-10.608-9.823-10.608    C33.949,22.67,29.928,37.52,33.927,47.104c-1.708,7.213-5.463,23.171-6.421,27.193c-0.05,0.21-4.609,21.081,2.54,23.002    c6.617,2.207,12.297-14.392,13.407-18.568c0.376-1.367,1.571-6.059,2.361-9.165c3.094,2.208,7.159,3.526,11.094,3.526    C85.194,73.461,97.992,31.023,77.781,12.304z"/></g></g></svg>