<?xml version="1.0" standalone="no"?>
<!DOCTYPE svg PUBLIC "-//W3C//DTD SVG 20010904//EN"
 "http://www.w3.org/TR/2001/REC-SVG-20010904/DTD/svg10.dtd">
<svg version="1.0" xmlns="http://www.w3.org/2000/svg"
 width="81.000000pt" height="91.000000pt" viewBox="0 0 81.000000 91.000000"
 preserveAspectRatio="xMidYMid meet">

<g transform="translate(0.000000,91.000000) scale(0.100000,-0.100000)"
fill="#000000" stroke="none">
<path d="M292 537 c-61 -62 -112 -117 -112 -123 0 -7 7 -17 16 -24 13 -12 27
-1 100 71 l84 84 0 -183 0 -182 30 0 30 0 0 182 0 183 85 -85 c84 -83 84 -84
105 -65 21 19 21 19 -97 137 -65 65 -120 118 -123 118 -3 0 -56 -51 -118 -113z"/>
</g>
</svg>
